<svg width="15" height="16" viewBox="0 0 15 16" fill="none" xmlns="http://www.w3.org/2000/svg">
<path d="M11.8609 13.0509C11.9993 13.187 12.1742 13.2622 12.3718 13.2622C12.7819 13.2622 13.1053 12.9439 13.1053 12.5373C13.1053 12.3374 13.0182 12.1523 12.8805 12.0106L8.15418 7.39265V8.00675L12.8805 3.39852C13.0193 3.25563 13.1053 3.06654 13.1053 2.87294C13.1053 2.46513 12.7819 2.14282 12.3718 2.14282C12.1731 2.14282 12.0022 2.2169 11.8609 2.35413L6.96907 7.13928C6.80118 7.29284 6.71519 7.48594 6.71289 7.70455C6.71289 7.91686 6.80005 8.10077 6.96907 8.26979L11.8609 13.0509Z" fill="white"/>
<path d="M6.25332 13.0509C6.39168 13.187 6.56146 13.2622 6.76423 13.2622C7.17427 13.2622 7.49371 12.9439 7.49371 12.5373C7.49371 12.3374 7.4117 12.1523 7.27284 12.0106L2.54143 7.39265V8.00675L7.27284 3.39852C7.41282 3.25563 7.49371 3.06654 7.49371 2.87294C7.49371 2.46513 7.17427 2.14282 6.76423 2.14282C6.56028 2.14282 6.39055 2.2169 6.25332 2.35413L1.36145 7.13928C1.19471 7.29284 1.10758 7.48594 1.10645 7.70455C1.10645 7.91686 1.18843 8.10077 1.3563 8.26979L6.25332 13.0509Z" fill="white"/>
</svg>
