<svg width="18" height="19" viewBox="0 0 18 19" fill="none" xmlns="http://www.w3.org/2000/svg">
<path d="M5.8687 5.49832H16.1025C16.5012 5.49832 16.8198 5.18718 16.8198 4.78716C16.8198 4.38367 16.5025 4.06982 16.1025 4.06982H5.8687C5.46385 4.06982 5.15137 4.38095 5.15137 4.78716C5.15137 5.18583 5.4625 5.49832 5.8687 5.49832ZM5.8687 10.1266H16.1025C16.5012 10.1266 16.8198 9.80927 16.8198 9.40925C16.8198 9.01058 16.5025 8.69809 16.1025 8.69809H5.8687C5.46385 8.69809 5.15137 9.00922 5.15137 9.40925C5.15137 9.80791 5.4625 10.1266 5.8687 10.1266ZM5.8687 14.7487H16.1025C16.5012 14.7487 16.8198 14.4375 16.8198 14.0375C16.8198 13.6327 16.5025 13.3202 16.1025 13.3202H5.8687C5.46385 13.3202 5.15137 13.6313 5.15137 14.0375C5.15137 14.4362 5.4625 14.7487 5.8687 14.7487Z" fill="white"/>
<path d="M2.34518 5.84131C2.93219 5.84131 3.40559 5.36791 3.40559 4.78708C3.40559 4.20143 2.93219 3.72803 2.34518 3.72803C1.75953 3.72803 1.28613 4.20143 1.28613 4.78708C1.28613 5.36791 1.75953 5.84131 2.34518 5.84131ZM2.34518 10.4696C2.93219 10.4696 3.40559 9.99617 3.40559 9.40917C3.40559 8.82216 2.93219 8.35012 2.34518 8.35012C1.75953 8.35012 1.28613 8.82216 1.28613 9.40917C1.28613 9.99617 1.75953 10.4696 2.34518 10.4696ZM2.34518 15.0965C2.93219 15.0965 3.40559 14.6183 3.40559 14.0374C3.40559 13.4505 2.93219 12.9784 2.34518 12.9784C1.75953 12.9784 1.28613 13.4505 1.28613 14.0374C1.28613 14.6183 1.75953 15.0965 2.34518 15.0965Z" fill="white"/>
</svg>
