<svg width="30" height="30" viewBox="0 0 30 30" fill="none" xmlns="http://www.w3.org/2000/svg">
<rect width="30" height="30" rx="6" fill="#102925"/>
<path d="M24.8319 7.6499H0V11.5499H2.4C2.77771 11.5499 3.13337 11.3721 3.36 11.0699L3.54 10.8299C3.76663 10.5277 4.12229 10.3499 4.5 10.3499H22.4264C22.8549 10.3499 23.2629 10.1667 23.5475 9.84645L25.0562 8.14921C25.2281 7.95574 25.0908 7.6499 24.8319 7.6499Z" fill="#FFFFF8"/>
<path d="M21.8319 13.05H0V16.95H2.4C2.77771 16.95 3.13337 16.7722 3.36 16.47L3.54 16.23C3.76663 15.9279 4.12229 15.75 4.5 15.75H19.4264C19.8549 15.75 20.2629 15.5668 20.5475 15.2466L22.0562 13.5494C22.2281 13.3559 22.0908 13.05 21.8319 13.05Z" fill="#FFFFF8"/>
<path d="M18.8319 18.45H0V22.35H2.4C2.77771 22.35 3.13337 22.1721 3.36 21.87L3.54 21.63C3.76663 21.3278 4.12229 21.15 4.5 21.15H16.4264C16.8549 21.15 17.2629 20.9667 17.5475 20.6465L19.0562 18.9493C19.2281 18.7558 19.0908 18.45 18.8319 18.45Z" fill="#FFFFF8"/>
</svg>
