<svg width="19" height="19" viewBox="0 0 19 19" fill="none" xmlns="http://www.w3.org/2000/svg">
<path d="M8.555 18.2108H10.0876C10.5831 18.2108 10.954 17.9121 11.0596 17.4294L11.4814 15.6497C11.7701 15.5529 12.0505 15.4409 12.2951 15.3236L13.8549 16.2782C14.2645 16.5343 14.7425 16.4918 15.086 16.1513L16.1613 15.0829C16.5048 14.7394 16.5512 14.2348 16.2783 13.8267L15.3267 12.2836C15.451 12.0268 15.5614 11.7616 15.643 11.4949L17.4395 11.0664C17.9221 10.9622 18.2139 10.5899 18.2139 10.0944V8.58988C18.2139 8.10266 17.9221 7.73187 17.4395 7.62473L15.6612 7.19767C15.5645 6.89667 15.4471 6.62312 15.342 6.39376L16.2966 4.82261C16.5626 4.40995 16.5284 3.93048 16.175 3.58997L15.0815 2.51168C14.7326 2.19393 14.3026 2.13617 13.886 2.36804L12.2951 3.35075C12.0574 3.22502 11.7839 3.11452 11.4829 3.01625L11.0596 1.2114C10.954 0.728755 10.5831 0.428589 10.0876 0.428589H8.555C8.05943 0.428589 7.68864 0.728755 7.57764 1.2129L7.15443 2.99951C6.86565 3.09627 6.58373 3.20827 6.33228 3.34087L4.7566 2.36804C4.33858 2.13617 3.90465 2.18557 3.55276 2.51469L2.4676 3.58997C2.1142 3.93048 2.0747 4.40995 2.34757 4.82261L3.29378 6.39376C3.19551 6.62312 3.07815 6.89667 2.9829 7.19767L1.20465 7.62473C0.720506 7.73187 0.428711 8.10266 0.428711 8.58988V10.0944C0.428711 10.5899 0.720506 10.9622 1.20465 11.0664L2.99963 11.4949C3.08268 11.7616 3.19165 12.0268 3.30901 12.2836L2.36431 13.8267C2.08457 14.2348 2.13931 14.7394 2.48284 15.0829L3.55125 16.1513C3.89328 16.4918 4.3796 16.5343 4.78925 16.2782L6.34065 15.3236C6.5936 15.4409 6.86565 15.5529 7.15443 15.6497L7.57764 17.4294C7.68864 17.9121 8.05943 18.2108 8.555 18.2108ZM9.32207 12.2512C7.71171 12.2512 6.39288 10.9239 6.39288 9.31359C6.39288 7.71159 7.71171 6.39275 9.32207 6.39275C10.9309 6.39275 12.2497 7.71159 12.2497 9.31359C12.2497 10.9239 10.9309 12.2512 9.32207 12.2512Z" fill="white" fill-opacity="0.5"/>
</svg>
