<svg width="18" height="19" viewBox="0 0 18 19" fill="none" xmlns="http://www.w3.org/2000/svg">
<path d="M9.02158 13.5025C11.1824 13.5025 12.9741 11.7108 12.9741 9.54387C12.9741 7.37075 11.1824 5.57899 9.02158 5.57899C6.85468 5.57899 5.06292 7.37075 5.06292 9.54387C5.06292 11.7108 6.85468 13.5025 9.02158 13.5025ZM9.02158 12.1032C7.61829 12.1032 6.45615 10.941 6.45615 9.54387C6.45615 8.14052 7.61829 6.97704 9.02158 6.97704C10.4188 6.97704 11.5823 8.14052 11.5823 9.54387C11.5823 10.941 10.4188 12.1032 9.02158 12.1032ZM9.78221 1.9034C9.78221 1.49026 9.43609 1.14282 9.02158 1.14282C8.61465 1.14282 8.26854 1.49026 8.26854 1.9034V3.43797C8.26854 3.84628 8.61465 4.19237 9.02158 4.19237C9.43609 4.19237 9.78221 3.84628 9.78221 3.43797V1.9034ZM12.7947 4.71128C12.5095 5.00132 12.5108 5.48346 12.7987 5.77757C13.0888 6.06278 13.5771 6.06625 13.8699 5.7735L14.9571 4.68355C15.2485 4.39351 15.2471 3.89902 14.953 3.61109C14.6678 3.32105 14.1795 3.32377 13.8942 3.61515L12.7947 4.71128ZM16.6476 10.2969C17.0607 10.2969 17.4082 9.9508 17.4082 9.54387C17.4082 9.13553 17.0607 8.78948 16.6476 8.78948H15.1192C14.7109 8.78948 14.3648 9.13553 14.3648 9.54387C14.3648 9.9508 14.7109 10.2969 15.1192 10.2969H16.6476ZM13.8609 13.3177C13.5758 13.0263 13.0875 13.029 12.7947 13.3218C12.5095 13.607 12.5108 14.0939 12.7987 14.3866L13.8997 15.4814C14.1849 15.7653 14.6732 15.7577 14.9611 15.4699C15.2512 15.1798 15.2498 14.6915 14.9557 14.4049L13.8609 13.3177ZM9.78221 15.6484C9.78221 15.2352 9.43609 14.8892 9.02158 14.8892C8.61465 14.8892 8.26854 15.2352 8.26854 15.6484V17.1829C8.26854 17.5913 8.61465 17.9387 9.02158 17.9387C9.43609 17.9387 9.78221 17.5913 9.78221 17.1829V15.6484ZM3.08749 14.3987C2.79956 14.6853 2.79821 15.1736 3.07589 15.4637C3.36382 15.7516 3.85831 15.7591 4.1497 15.4753L5.2383 14.3866C5.5324 14.1001 5.53376 13.6132 5.2499 13.3218C4.96197 13.0352 4.46748 13.0325 4.17608 13.3177L3.08749 14.3987ZM1.39562 8.78948C0.988665 8.78948 0.642578 9.13553 0.642578 9.54387C0.642578 9.9508 0.988665 10.2969 1.39562 10.2969H2.92401C3.33851 10.2969 3.68595 9.9508 3.68595 9.54387C3.68595 9.13553 3.33851 8.78948 2.92401 8.78948H1.39562ZM4.17337 5.7735C4.46612 6.06007 4.95443 6.06278 5.2383 5.77757C5.5324 5.49581 5.53376 4.99514 5.2499 4.71128L4.16131 3.61515C3.88227 3.32994 3.38778 3.32105 3.09638 3.61109C2.80981 3.89902 2.8071 4.39351 3.08614 4.67737L4.17337 5.7735Z" fill="white"/>
</svg>
